<svg width="20" height="22" viewBox="0 0 23 25" fill="none" xmlns="http://www.w3.org/2000/svg">
<path d="M15.5666 1.78172C14.5023 0.632734 13.0159 0 11.3753 0C9.72594 0 8.23461 0.628906 7.17531 1.77078C6.10453 2.92523 5.58281 4.49422 5.70531 6.18844C5.94813 9.53094 8.49164 12.25 11.3753 12.25C14.259 12.25 16.7981 9.53148 17.0448 6.18953C17.1689 4.51062 16.6439 2.94492 15.5666 1.78172ZM21.0003 24.5H1.75031C1.49835 24.5033 1.24882 24.4503 1.01989 24.3451C0.790953 24.2398 0.588369 24.0848 0.426875 23.8913C0.0714065 23.4664 -0.0718747 22.8862 0.034219 22.2994C0.495782 19.7389 1.93625 17.588 4.20031 16.0781C6.21172 14.7377 8.75961 14 11.3753 14C13.991 14 16.5389 14.7383 18.5503 16.0781C20.8144 17.5875 22.2548 19.7384 22.7164 22.2988C22.8225 22.8856 22.6792 23.4659 22.3238 23.8908C22.1623 24.0843 21.9597 24.2394 21.7308 24.3448C21.5019 24.4502 21.2523 24.5032 21.0003 24.5Z" fill="#F8F8F8"/>
</svg>
